#!OML:ASF E:\Steps\Project 1\Capture day 1\Session 2\Subject.ASF
:FULLY-SPECIFIED
:DEGREES
850
root 22.3895 16.1009 -10.4229 -317.176 86.5644 24.8434
lowerback -26.2702 -0.299324 -5.25211
upperback -0.0894041 1.46312 -0.779547
thorax 14.5902 0.360568 2.69302
lowerneck 4.19663 -0.265322 -5.29027
upperneck 1.90134 -0.550701 7.58326
head -0.0933091 -0.316586 3.38382
rclavicle -6.5102e-015 -6.36111e-015
rhumerus -29.9365 -7.82032 -83.6456
rradius 45.4559
rwrist -10.4744
rhand -6.80634 -52.6073
rfingers 7.12502
rthumb 19.0571 -81.6936
lclavicle -6.5102e-015 -6.36111e-015
lhumerus -36.0364 19.1953 70.7816
lradius 6.40289
lwrist -18.3127
lhand -21.8969 -8.84079
lfingers 7.12502
lthumb 4.50833 21.0912
rfemur -18.572 6.88763 21.5941
rtibia 13.3181
rfoot -18.6958 -1.81658
rtoes -15.0767
lfemur -43.5036 -6.30563 -15.7304
ltibia 30.4635
lfoot -3.96449 5.64545
ltoes -32.4483
851
root 22.4826 16.097 -10.432 -321.616 86.4875 20.2786
lowerback -26.4028 -0.269609 -4.91735
upperback -0.137179 1.39859 -0.723145
thorax 14.6173 0.353742 2.54391
lowerneck 3.80755 -0.0481316 -5.40273
upperneck 2.1074 -0.263022 7.27079
head 0.0203908 -0.166122 3.29149
rclavicle -4.47266e-016 -1.70955e-014
rhumerus -29.3747 -8.50301 -83.6248
rradius 45.1336
rwrist -9.47817
rhand -6.49345 -52.0804
rfingers 7.12502
rthumb 19.3579 -81.1369
lclavicle -4.47266e-016 -1.70955e-014
lhumerus -36.2079 19.4453 70.7821
lradius 5.95029
lwrist -18.0923
lhand -22.3524 -8.59942
lfingers 7.12502
lthumb 4.06848 21.3415
rfemur -18.4868 4.39371 21.9283
rtibia 13.5486
rfoot -18.8342 0.911206
rtoes -11.7047
lfemur -43.2413 -6.84836 -14.9707
ltibia 27.8682
lfoot -3.32504 5.28302
ltoes -37.0589
852
root 22.5798 16.0899 -10.4321 -322.678 86.3936 19.22
lowerback -26.463 -0.249372 -4.95104
upperback -0.166391 1.4459 -0.760267
thorax 14.6127 0.375675 2.53925
lowerneck 4.32724 -0.155809 -5.20524
upperneck 1.72561 -0.399382 7.40361
head -0.183002 -0.244474 3.30432
rclavicle -7.40473e-015 2.98177e-014
rhumerus -28.986 -8.54588 -83.6663
rradius 45.1297
rwrist -9.55717
rhand -6.80302 -52.0063
rfingers 7.12502
rthumb 19.0603 -81.0923
lclavicle -7.40473e-015 2.98177e-014
lhumerus -36.2756 19.261 70.6538
lradius 5.53845
lwrist -17.8806
lhand -21.8148 -8.87946
lfingers 7.12502
lthumb 4.58757 21.0509
rfemur -17.9878 7.00316 21.9045
rtibia 13.485
rfoot -19.4026 -2.1567
rtoes -15.5381
lfemur -42.7947 -7.61969 -14.3208
ltibia 25.3487
lfoot -2.93709 5.03536
ltoes -37.3908
853
root 22.6808 16.0812 -10.4274 -323.375 86.163 18.6159
lowerback -26.5042 -0.115031 -5.10982
upperback -0.149458 1.68901 -0.849082
thorax 14.6362 0.476291 2.6206
lowerneck 4.2116 -0.162698 -4.8843
upperneck 1.75353 -0.391541 7.21827
head -0.154391 -0.235706 3.17788
rclavicle -1.42131e-014 3.65764e-014
rhumerus -28.8721 -8.62044 -83.7177
rradius 45.4812
rwrist -9.95152
rhand -7.13077 -51.9729
rfingers 7.12502
rthumb 18.745 -81.0897
lclavicle -1.42131e-014 3.65764e-014
lhumerus -36.1246 18.8547 70.7151
lradius 5.04471
lwrist -17.4706
lhand -21.5054 -9.1782
lfingers 7.12502
lthumb 4.88638 20.7455
rfemur -17.538 4.90118 21.9425
rtibia 13.4311
rfoot -19.3414 0.262547
rtoes -12.5661
lfemur -42.1377 -8.49501 -13.6869
ltibia 22.8445
lfoot -2.62442 4.90703
ltoes -36.4077
854
root 22.7828 16.0719 -10.4251 -326.704 85.9248 15.388
lowerback -26.525 0.0496626 -5.04343
upperback -0.129632 1.88529 -0.847063
thorax 14.6575 0.566995 2.65968
lowerneck 4.36884 -0.245285 -4.74556
upperneck 1.56229 -0.491489 7.26178
head -0.236183 -0.289302 3.16931
rclavicle 4.02539e-015 -7.55382e-015
rhumerus -28.8653 -8.35616 -83.736
rradius 46.0071
rwrist -10.7347
rhand -7.02078 -52.0367
rfingers 7.12502
rthumb 18.8508 -81.1432
lclavicle 4.02539e-015 -7.55382e-015
lhumerus -36.0398 18.6329 70.8046
lradius 4.59929
lwrist -17.0906
lhand -22.0497 -8.94434
lfingers 7.12502
lthumb 4.36082 20.9908
rfemur -17.0448 6.1671 22.1094
rtibia 13.4969
rfoot -19.6587 -0.922587
rtoes -14.5469
lfemur -41.4738 -9.13122 -12.992
ltibia 20.5257
lfoot -2.07455 4.77743
ltoes -37.2521
855
root 22.8834 16.0585 -10.4289 -328.2 85.7561 13.8754
lowerback -26.6481 0.111724 -4.98794
upperback -0.156115 1.95766 -0.844751
thorax 14.6903 0.603058 2.66087
lowerneck 4.49998 -0.301347 -4.72382
upperneck 1.4017 -0.562239 7.30233
head -0.305601 -0.328646 3.18176
rclavicle -8.24956e-015 -1.51076e-014
rhumerus -28.673 -8.61624 -83.6685
rradius 46.1537
rwrist -10.5432
rhand -6.96912 -52.2115
rfingers 7.12502
rthumb 18.9005 -81.3132
lclavicle -8.24956e-015 -1.51076e-014
lhumerus -36.119 18.5514 70.826
lradius 4.21594
lwrist -17.0851
lhand -22.6621 -8.73915
lfingers 7.12502
lthumb 3.76945 21.2073
rfemur -16.8964 5.00246 22.16
rtibia 13.8545
rfoot -19.7887 0.380071
rtoes -13.2023
lfemur -41.0549 -9.7708 -12.4545
ltibia 18.572
lfoot -1.29809 4.71838
ltoes -38.8407
856
root 22.9847 16.0484 -10.4351 -327.409 85.6504 14.6373
lowerback -26.8104 0.0963038 -5.06485
upperback -0.179692 1.97914 -0.88026
thorax 14.7501 0.608077 2.67611
lowerneck 4.36914 -0.103964 -4.7568
upperneck 1.64577 -0.308267 7.07043
head -0.221493 -0.196584 3.10267
rclavicle 1.87852e-014 -2.26615e-014
rhumerus -28.361 -8.79523 -83.6478
rradius 46.0487
rwrist -10.4673
rhand -7.56266 -52.1303
rfingers 7.12502
rthumb 18.3296 -81.2867
lclavicle 1.87852e-014 -2.26615e-014
lhumerus -36.1211 18.5476 70.9359
lradius 3.73236
lwrist -17.0872
lhand -23.1164 -8.65678
lfingers 7.12502
lthumb 3.33074 21.2969
rfemur -16.414 5.93369 22.0524
rtibia 13.6007
rfoot -19.9363 -0.857394
rtoes -15.1694
lfemur -40.7001 -10.2746 -12.2298
ltibia 16.9684
lfoot -0.469391 4.59528
ltoes -38.4226
857
root 23.0883 16.0415 -10.4361 -328.468 85.5152 13.6497
lowerback -26.918 0.116743 -5.10662
upperback -0.151629 2.02635 -0.877195
thorax 14.8388 0.621985 2.72477
lowerneck 4.18477 -0.142293 -4.59578
upperneck 1.71265 -0.349857 6.99164
head -0.165313 -0.21259 3.04447
rclavicle 1.05853e-014 -1.07344e-014
rhumerus -28.1405 -8.77591 -83.7109
rradius 46.1339
rwrist -10.6395
rhand -7.9407 -51.9521
rfingers 7.12502
rthumb 17.9659 -81.1423
lclavicle 1.05853e-014 -1.07344e-014
lhumerus -35.9836 18.5248 71.0007
lradius 3.26456
lwrist -16.7847
lhand -23.1759 -8.41925
lfingers 7.12502
lthumb 3.2732 21.5354
rfemur -16.1229 5.68946 22.0786
rtibia 13.9982
rfoot -20.3357 -0.400112
rtoes -14.7908
lfemur -40.1901 -10.3452 -12.1399
ltibia 15.6289
lfoot 0.353524 4.33449
ltoes -37.7437
858
root 23.1917 16.0317 -10.4356 -330.472 85.4352 11.7497
lowerback -26.9873 0.120484 -5.00731
upperback -0.0805144 1.99596 -0.824825
thorax 14.9664 0.606131 2.71925
lowerneck 4.13542 -0.167394 -4.72979
upperneck 1.64705 -0.386127 7.0681
head -0.175262 -0.232023 3.09667
rclavicle 1.15792e-014 -6.75868e-015
rhumerus -28.0162 -7.90267 -83.8504
rradius 46.3829
rwrist -11.2477
rhand -6.50827 -51.7558
rfingers 7.12502
rthumb 19.3437 -80.8137
lclavicle 1.15792e-014 -6.75868e-015
lhumerus -35.9213 18.6671 71.0779
lradius 2.97376
lwrist -16.4748
lhand -22.807 -8.28913
lfingers 7.12502
lthumb 3.62948 21.6597
rfemur -15.6492 5.6758 22.239
rtibia 14.1145
rfoot -20.5923 -0.218277
rtoes -15.0299
lfemur -39.6858 -10.0541 -12.2468
ltibia 14.6438
lfoot 1.22045 3.9484
ltoes -38.7997
859
root 23.2914 16.0231 -10.4446 -330.292 85.4759 11.9464
lowerback -27.0573 0.0620057 -4.98933
upperback -0.0503255 1.91521 -0.804458
thorax 15.0482 0.566873 2.70349
lowerneck 3.9942 -0.169557 -4.8324
upperneck 1.67224 -0.390885 7.1213
head -0.142299 -0.232924 3.1338
rclavicle 7.50412e-015 -2.82274e-014
rhumerus -27.7258 -8.03261 -83.8991
rradius 46.2899
rwrist -11.0471
rhand -5.00492 -51.6892
rfingers 7.12502
rthumb 20.7887 -80.5956
lclavicle 7.50412e-015 -2.82274e-014
lhumerus -35.8735 18.8472 71.3052
lradius 2.66019
lwrist -16.4245
lhand -22.5877 -8.24152
lfingers 7.12502
lthumb 3.84121 21.7036
rfemur -15.2978 5.55964 22.2705
rtibia 14.2306
rfoot -20.8018 -0.36738
rtoes -15.7034
lfemur -39.4155 -9.56046 -12.724
ltibia 14.1309
lfoot 2.09433 3.53581
ltoes -37.6848
